<svg height="512pt" viewBox="0 -3 512 512" width="512pt" xmlns="http://www.w3.org/2000/svg"><path d="m77.585938 152.75h224.355468c4.140625 0 7.5-3.355469 7.5-7.5 0-4.140625-3.359375-7.5-7.5-7.5h-224.355468c-4.140626 0-7.5 3.359375-7.5 7.5 0 4.144531 3.359374 7.5 7.5 7.5zm0 0"/><path d="m77.585938 202.085938h204.355468c4.140625 0 7.5-3.359376 7.5-7.5 0-4.144532-3.359375-7.5-7.5-7.5h-204.355468c-4.140626 0-7.5 3.355468-7.5 7.5 0 4.140624 3.359374 7.5 7.5 7.5zm0 0"/><path d="m77.585938 251.417969h134.355468c4.140625 0 7.5-3.355469 7.5-7.5 0-4.140625-3.359375-7.5-7.5-7.5h-134.355468c-4.140626 0-7.5 3.359375-7.5 7.5 0 4.144531 3.359374 7.5 7.5 7.5zm0 0"/><path d="m77.585938 300.753906h134.355468c4.140625 0 7.5-3.359375 7.5-7.5 0-4.144531-3.359375-7.5-7.5-7.5h-134.355468c-4.140626 0-7.5 3.359375-7.5 7.5s3.359374 7.5 7.5 7.5zm0 0"/><path d="m484.5 96.25h-45.449219v-35.367188c0-15.164062-12.335937-27.5-27.5-27.5h-151.277343c-3.679688-18.988281-20.546876-33.382812-40.746094-33.382812-20.203125 0-37.066406 14.394531-40.746094 33.382812h-151.28125c-15.164062 0-27.5 12.335938-27.5 27.5v111.140626c0 4.144531 3.359375 7.5 7.5 7.5s7.5-3.355469 7.5-7.5v-111.140626c0-6.894531 5.605469-12.5 12.5-12.5h151.164062c.035157.203126.082032.398438.121094.601563.050782.265625.105469.535156.160156.800781.082032.378906.171876.753906.265626 1.132813.0625.25.121093.503906.1875.753906.109374.402344.222656.796875.34375 1.191406.066406.222657.125.441407.195312.660157.15625.488281.324219.96875.496094 1.449218.042968.121094.082031.246094.128906.367188.21875.597656.457031 1.1875.703125 1.773437.070313.164063.148437.324219.222656.488281.183594.417969.367188.835938.566407 1.246094.101562.210938.210937.421875.316406.632813.179687.355469.363281.710937.550781 1.058593.121094.226563.246094.445313.371094.664063.1875.332031.378906.664063.574219.992187.132812.21875.269531.4375.40625.65625.199218.324219.40625.640626.617187.953126.140625.214843.285156.425781.429687.636718.21875.316406.445313.628906.671876.9375.148437.199219.292968.398438.441406.59375.25.324219.503906.644532.761718.960938.140626.171875.273438.34375.414063.511718.320313.378907.644531.75.976563 1.117188.089843.097656.175781.203125.265624.300781.429688.46875.871094.925781 1.320313 1.371094.082031.082031.164063.160156.246094.238281.367187.359375.742187.714844 1.125 1.0625.152343.140625.3125.273438.46875.410156.316406.28125.636719.558594.960937.828126.179688.148437.367188.296874.550782.445312.3125.246094.621093.492188.941406.730469.195312.148437.390625.292969.589844.4375.316406.230469.636718.457031.960937.675781.203125.140625.40625.277344.613281.414062.332032.21875.667969.429688 1.003906.640626.203126.125.40625.25.609376.371093.359374.214844.726562.421875 1.09375.625.191406.105469.378906.214844.566406.316407.429687.226562.867187.449218 1.304687.664062.132813.0625.265625.132812.398438.199219.585937.277343 1.179687.546875 1.777343.796875.019532.007812.042969.015625.0625.023437.570313.238281 1.148438.464844 1.730469.679688.171875.0625.347657.121093.523438.179687.433593.152344.867187.300782 1.308593.441406.214844.066407.433594.128907.652344.195313.40625.121094.8125.234375 1.222656.34375.234376.0625.46875.117187.707032.175781.402344.097656.804687.191406 1.210937.277344.242188.054688.484375.105469.730469.152344.410156.078125.820312.152344 1.234375.21875.242187.039062.480469.078125.726563.113281.433593.0625.867187.117187 1.304687.164063.226563.027343.449219.054687.675781.078124.492188.046876.988282.082032 1.484375.113282.175781.007812.347657.027344.523438.035156.675781.03125 1.359375.050781 2.046875.050781.683594 0 1.367187-.019531 2.046875-.050781.171875-.011719.347656-.027344.519531-.035156.496094-.03125.996094-.066406 1.484375-.113282.226563-.023437.449219-.050781.675781-.078124.4375-.046876.875-.101563 1.308594-.164063.242188-.035156.484375-.074219.726562-.113281.410157-.066406.824219-.140625 1.230469-.21875.246094-.050782.488281-.097656.730469-.152344.40625-.085938.8125-.179688 1.214844-.277344.234375-.058594.46875-.113281.703125-.175781.410156-.109375.816406-.226563 1.222656-.34375.21875-.066406.4375-.128906.65625-.195313.4375-.140624.871094-.289062 1.304687-.441406.175782-.0625.351563-.117187.527344-.179687.582032-.214844 1.15625-.441407 1.726563-.679688.023437-.007812.042969-.015625.0625-.023437.601562-.25 1.191406-.519532 1.777343-.796875.132813-.066407.265626-.136719.398438-.199219.4375-.214844.875-.4375 1.304688-.664062.191406-.101563.378906-.210938.566406-.316407.367187-.203125.734375-.410156 1.09375-.625.207031-.121093.40625-.246093.609375-.371093.339843-.210938.675781-.421876 1.007812-.640626.203125-.136718.40625-.273437.609375-.414062.324219-.21875.644532-.445312.960938-.675781.199218-.144531.398437-.289063.59375-.4375.316406-.238281.628906-.484375.9375-.730469.1875-.148438.371094-.296875.550781-.445312.328125-.269532.644531-.546876.960937-.828126.15625-.136718.316407-.269531.472657-.410156.378906-.347656.753906-.703125 1.121093-1.0625.082032-.078125.167969-.15625.25-.238281.449219-.445313.886719-.902344 1.316407-1.371094.089843-.097656.179687-.203125.269531-.300781.328125-.367188.65625-.738281.972656-1.117188.140625-.167968.277344-.339843.414063-.511718.257812-.316406.515625-.636719.761719-.960938.152343-.195312.296874-.394531.441406-.59375.226562-.308594.453125-.621094.671875-.9375.148437-.210937.289062-.421875.433593-.636718.207032-.3125.414063-.632813.613282-.953126.136718-.214843.273437-.4375.40625-.65625.199218-.328124.386718-.660156.578125-.992187.121093-.21875.25-.4375.367187-.664063.191406-.347656.371094-.703124.550782-1.058593.105468-.210938.214843-.421875.316406-.632813.199218-.410156.386718-.828125.570312-1.246094.070313-.164062.148438-.324218.21875-.488281.246094-.585937.484375-1.175781.707032-1.773437.042968-.121094.082031-.246094.125-.367188.171874-.480468.339843-.960937.496093-1.449218.070313-.21875.128907-.4375.195313-.660157.121094-.394531.238281-.789062.34375-1.191406.066406-.25.125-.5.1875-.753906.09375-.378907.183594-.753907.265625-1.132813.054687-.265625.109375-.535156.160156-.800781.039063-.203125.085937-.398437.121094-.601563h151.164062c6.894531 0 12.5 5.605469 12.5 12.5v355c0 6.890626-5.605469 12.5-12.5 12.5h-384.050781c-6.894531 0-12.5-5.609374-12.5-12.5v-208.859374c0-4.144532-3.359375-7.5-7.5-7.5s-7.5 3.355468-7.5 7.5v208.859374c0 15.160157 12.335938 27.5 27.5 27.5h45.449219v35.367188c0 15.160156 12.335937 27.5 27.5 27.5h313.601562c4.144531 0 7.5-3.359375 7.5-7.5 0-4.144531-3.355469-7.5-7.5-7.5h-313.601562c-6.894531 0-12.5-5.609375-12.5-12.5v-35.367188h323.601562c15.164063 0 27.5-12.339843 27.5-27.5v-304.632812h45.449219c6.894531 0 12.5 5.605469 12.5 12.5v26.5c0 4.144531 3.359375 7.5 7.5 7.5s7.5-3.355469 7.5-7.5v-26.5c0-15.164062-12.335938-27.5-27.5-27.5zm-264.972656-81.25c14.53125 0 26.367187 11.613281 26.492187 25.9375v.023438l.003907.234374c0 .238282-.007813.46875-.015626.703126-.007812.214843-.007812.429687-.019531.640624-.011719.230469-.035156.457032-.050781.683594-.019531.214844-.03125.429688-.050781.644532-.023438.222656-.058594.445312-.089844.667968-.027344.214844-.050781.425782-.082031.636719-.035156.222656-.078125.441406-.121094.664063-.035156.207031-.070312.417968-.113281.625-.042969.214843-.097657.429687-.152344.644531-.046875.207031-.089844.414062-.144531.617187-.054688.207032-.117188.410156-.175782.617188-.0625.207031-.117187.417968-.183593.625-.0625.199218-.136719.394531-.203125.59375-.070313.207031-.136719.414062-.214844.617187-.074219.199219-.15625.394531-.234375.59375-.082031.195313-.15625.394531-.242187.59375-.085938.199219-.179688.394531-.273438.59375-.085938.1875-.167969.378907-.257812.5625-.097657.203125-.207032.398438-.308594.597657-.09375.179687-.179688.355468-.277344.527343-.113281.210938-.238281.414063-.359375.621094-.09375.15625-.183594.316406-.277344.472656-.136719.222657-.28125.4375-.425781.652344-.089844.136719-.171875.273437-.265625.40625-.148437.222656-.308594.4375-.46875.652344-.089844.125-.175781.25-.269531.375-.171875.226562-.351563.445312-.53125.664062-.085938.109375-.167969.21875-.253906.324219-.191407.226562-.390626.445312-.585938.664062-.082031.09375-.164062.191407-.246094.285157-.222656.234375-.445312.464843-.675781.695312-.066406.070313-.132813.140625-.203125.210938-.25.246093-.511719.488281-.769531.726562-.050781.042969-.097657.09375-.148438.136719-.289062.257812-.582031.507812-.882812.753906-.027344.023438-.050781.046875-.078125.066406-4.582032 3.738282-10.453125 5.984376-16.84375 5.984376-7.761719 0-14.757813-3.316407-19.609375-8.582032-.011719-.015625-.023438-.03125-.035157-.042968-.273437-.296876-.539062-.597657-.796874-.90625-.023438-.027344-.046876-.058594-.070313-.089844-.242187-.292969-.484375-.59375-.714844-.898438-.035156-.046875-.070312-.097656-.105469-.144531-.21875-.289063-.429687-.582031-.632812-.878906-.039062-.058594-.078125-.121094-.117188-.179688-.195312-.289062-.386718-.582031-.574218-.878906-.042969-.074219-.085938-.152344-.128906-.226563-.171876-.285156-.34375-.574218-.507813-.867187-.050781-.097656-.101563-.195313-.152344-.292969-.148437-.277344-.292969-.550781-.433593-.832031-.054688-.113281-.101563-.230469-.15625-.339844-.125-.273437-.253907-.542969-.375-.816406-.054688-.128906-.101563-.261719-.15625-.394531-.109376-.261719-.21875-.523438-.316407-.792969-.054687-.144531-.101562-.292969-.152343-.4375-.089844-.257813-.183594-.511719-.265626-.773437-.050781-.15625-.089843-.3125-.136718-.46875-.074219-.253907-.152344-.511719-.222656-.773438-.042969-.160156-.078126-.324219-.113282-.488281-.0625-.257813-.128906-.511719-.183594-.773438-.035156-.171875-.0625-.347656-.09375-.523437-.046874-.253906-.097656-.503906-.140624-.761719-.027344-.179687-.046876-.363281-.070313-.546875-.035156-.253906-.070313-.503906-.097656-.757812-.019531-.195313-.03125-.390626-.046875-.582032-.019532-.25-.042969-.496094-.058594-.746094-.007812-.203124-.007812-.40625-.015625-.613281-.007813-.242187-.019531-.484375-.019531-.726562l.007812-.238281c0-.011719-.003906-.015626-.003906-.023438.125-14.324219 11.960938-25.9375 26.496094-25.9375zm0 0"/><path d="m504.5 177.75c-4.140625 0-7.5 3.355469-7.5 7.5v293.5c0 6.894531-5.605469 12.5-12.5 12.5h-35.449219c-4.140625 0-7.5 3.355469-7.5 7.5s3.359375 7.5 7.5 7.5h35.449219c15.164062 0 27.5-12.335938 27.5-27.5v-293.5c0-4.144531-3.359375-7.5-7.5-7.5zm0 0"/></svg>